<?xml version="1.0" encoding="UTF-8"?>
<svg id="Layer_2" data-name="Layer 2" xmlns="http://www.w3.org/2000/svg" xmlns:xlink="http://www.w3.org/1999/xlink" viewBox="0 0 145 79">
  <defs>
    <style>
      .cls-2 {
        fill: #fff;
      }
    </style>
  </defs>
  <g id="Layer_1-2" data-name="Layer 1">
    <g>
      <path class="cls-2" d="m124.83,79.98c-10.68,0-20.73-4.16-28.28-11.72l-14.14-14.14-14.14,14.14c-7.56,7.55-17.6,11.72-28.28,11.72s-20.73-4.16-28.28-11.72C-3.9,52.67-3.9,27.29,11.7,11.7c15.6-15.6,40.97-15.6,56.57,0l14.14,14.14,14.14-14.14c15.6-15.59,40.97-15.6,56.57,0l-14.14,14.14c-7.8-7.8-20.49-7.8-28.28,0l-14.14,14.14,14.14,14.14c3.78,3.78,8.8,5.86,14.14,5.86s10.36-2.08,14.14-5.86l14.14,14.14c-7.56,7.55-17.6,11.72-28.28,11.72ZM39.98,19.99c-5.12,0-10.24,1.95-14.14,5.85-7.8,7.8-7.8,20.49,0,28.28,7.8,7.8,20.49,7.8,28.28,0l14.14-14.14-14.14-14.14c-3.9-3.9-9.02-5.85-14.14-5.85Z"/>
    </g>
  </g>
</svg>